<svg width="500" height="500" viewBox="0 0 500 500" xmlns="http://www.w3.org/2000/svg" role="img" aria-label="Brutal Fruit Spritzer logo inspired badge">
  <defs>
    <linearGradient id="gold" x1="0" y1="0" x2="1" y2="1">
      <stop offset="0%" stop-color="#e9d7a4"/>
      <stop offset="100%" stop-color="#c99845"/>
    </linearGradient>
  </defs>
  <circle cx="250" cy="250" r="230" fill="#f3f2f5" stroke="url(#gold)" stroke-width="12"/>
  <text x="250" y="200" text-anchor="middle" font-family="Arial, sans-serif" font-size="72" letter-spacing="2" fill="#111">BRUTAL</text>
  <text x="250" y="270" text-anchor="middle" font-family="Arial, sans-serif" font-size="72" letter-spacing="2" fill="#111">FRUIT</text>
  <text x="250" y="345" text-anchor="middle" font-family="Georgia, serif" font-size="64" font-style="italic" fill="#111">Spritzer</text>
  <circle cx="390" cy="340" r="72" fill="#d59693" stroke="#ecdca9" stroke-width="10"/>
  <path d="M360 355c0-22 16-38 37-38 23 0 39 17 39 38 0 21-17 39-40 39-21 0-36-15-36-39zm11 0c0 15 10 27 25 27 15 0 27-12 27-27 0-14-11-26-27-26-14 0-25 11-25 26z" fill="#ecdca9"/>
</svg>
